<svg width="241" height="146" viewBox="0 0 241 146" fill="none" xmlns="http://www.w3.org/2000/svg">
<g style="mix-blend-mode:screen" opacity="0.459">
<path d="M48.6766 87.3796H72.183L50.485 40.2383H26.9785L48.6766 87.3796Z" fill="#9DE5F4"/>
</g>
<g style="mix-blend-mode:screen" opacity="0.459">
<path d="M55.2852 40.2383L76.9832 87.3796H93.2635V83.4565L73.3714 40.2383H55.2852Z" fill="#9DE5F4"/>
</g>
<path d="M232.129 145.103C239.893 117.224 241.549 89.3477 237.094 61.4717C234.899 47.7199 224.234 36.8579 210.514 34.4779C181.899 29.513 165.008 28.5165 127.953 32.5465C117.979 68.1044 91.4189 109.545 101.322 145.103H232.129Z" fill="#236EB2"/>
<g style="mix-blend-mode:screen">
<path d="M237.095 61.4717C234.899 47.7199 224.234 36.8579 210.514 34.4779C181.9 29.513 165.009 28.5165 127.953 32.5465C118.533 66.129 94.3177 104.961 100.001 139.126C171.295 151.006 215.242 102.112 237.669 65.2966C237.49 64.0216 237.3 62.7467 237.095 61.4717Z" fill="#F2F2F2"/>
</g>
<path d="M186.322 36.7671L172.161 35.6127L158 34.4583L131.842 36.7671V0.883789H186.322V36.7671Z" fill="#236EB2"/>
<path d="M186 36.958L158 34.458L154 36.958V0.958008H186V36.958Z" fill="#D1E9FF"/>
<path d="M176.346 145.012C180.27 119.905 181.484 94.7992 179.983 69.6929C178.603 46.5973 158.919 28.7509 135.65 29.3928C135.398 29.3986 135.149 29.4074 134.897 29.4133C115.178 30.0903 99.1895 45.6183 97.765 65.1822C95.8306 91.7921 96.9444 118.402 101.103 145.012H176.346Z" fill="#236EB2"/>
<path d="M171.003 145.103C174.807 120.612 175.983 96.1183 174.526 71.6275C173.189 49.0976 154.106 31.6879 131.544 32.3122C131.301 32.321 131.06 32.3268 130.817 32.3356C111.696 32.9951 96.1942 48.145 94.8166 67.2253C92.9379 93.1845 94.0165 119.144 98.0494 145.103H171.003Z" fill="#D1E9FF"/>
<path d="M159.789 95.8514C159.789 121.245 147.517 141.829 132.382 141.829C117.246 141.829 104.975 121.245 104.975 95.8514C104.975 70.4608 117.246 49.877 132.382 49.877C147.517 49.877 159.789 70.4608 159.789 95.8514Z" fill="#00529C"/>
<path d="M130.735 144.988C104.365 142.928 92.363 91.6574 110.227 61.6858C122.264 41.4947 142.637 41.7233 154.537 61.6858C172.398 91.6516 160.401 142.928 134.029 144.988H142.294C164.783 134.411 173.016 88.4774 156.389 60.5838C143.464 38.8979 121.06 39.3024 108.375 60.5838C91.7739 88.4363 99.9511 134.405 122.464 144.988H130.735Z" fill="#236EB2"/>
<path d="M155.263 95.8517C155.263 117.86 144.777 135.698 131.842 135.698C118.908 135.698 108.424 117.86 108.424 95.8517C108.424 73.8464 118.908 56.0059 131.842 56.0059C144.777 56.0059 155.263 73.8464 155.263 95.8517Z" fill="#236EB2"/>
<path d="M121.634 75.7896C134.568 75.7896 145.055 93.6272 145.055 115.635C145.055 120.911 144.451 125.949 143.355 130.56C150.465 123.719 155.263 110.741 155.263 95.8517C155.263 73.8464 144.776 56.0059 131.842 56.0059C122.012 56.0059 113.594 66.3168 110.124 80.9275C113.521 77.6566 117.451 75.7896 121.634 75.7896Z" fill="#00529C"/>
<path d="M108.65 101.408L155.181 99.1631C155.202 98.7323 155.219 98.3015 155.234 97.8677L108.556 100.119C108.585 100.552 108.615 100.98 108.65 101.408Z" fill="#32A4EA"/>
<path d="M140.823 145.011H23.5829L17.9819 114.052H147.719L140.823 145.011Z" fill="#236EB2"/>
<path d="M141.254 145.011H50.1845L45.7822 114.052H147.72L141.254 145.011Z" fill="#F1F9F4"/>
<path d="M50.1842 145.011H141.254L147.719 114.052H128.246C105.892 123.876 73.2213 137.235 49.8267 142.499L50.1842 145.011Z" fill="#D1E9FF"/>
<path d="M150.843 117.212H0.8125V112.47H150.843V117.212Z" fill="#236EB2"/>
<path d="M32.3456 111.778H95.1142L95.8206 102.305C64.0582 105.602 44.6907 106.687 37.718 105.555C27.2546 103.861 30.93 97.1084 28.7054 97.1084C27.5565 97.1084 26.6978 98.1635 26.9352 99.289L29.5525 111.778H32.3456Z" fill="#3A6388"/>
<path d="M142.372 104.134C137.273 104.058 133.788 103.835 131.915 103.472C130.831 103.261 131.85 103.824 131.452 104.779C131.156 105.485 130.983 106.42 131.197 107.59C131.569 109.615 132.856 110.664 135.054 110.732L145.107 109.706L142.372 104.134Z" fill="#FFE4E4"/>
<path d="M145.107 109.706L142.372 104.134C141.015 104.119 139.594 104.061 138.108 103.967C138.041 105.421 138.835 107.246 141.235 109.187C141.59 109.474 141.944 109.741 142.293 109.993L145.107 109.706Z" fill="#FFE4E4"/>
<path d="M153.041 112.792C154.885 112.124 157.455 106.043 156.506 104.498C155.462 103.226 154.067 102.314 152.314 101.766C150.565 101.215 149.058 100.699 147.792 100.219L147.232 101.095C146.748 101.004 146.203 100.922 145.594 100.852C145.471 101.766 145.38 103.185 145.746 104.222C145.078 103.413 144.753 102.265 144.764 100.773C143.823 100.702 142.85 100.708 142.314 100.94C140.415 101.766 138.879 105.245 143.152 109.187C147.428 113.129 151.198 113.464 153.041 112.792Z" fill="#FFF6F6"/>
<path d="M155.558 112.689C155.371 113.686 154.196 114.134 152.036 114.032C151.587 114.615 150.582 114.7 149.02 114.287C146.672 113.668 143.043 110.031 141.924 110.031C142.891 109.433 144.14 109.375 145.667 109.855C147.956 110.576 149.298 110.576 149.298 109.805C149.298 109.29 150.324 109.495 152.373 110.424C153.413 109.254 153.712 107.83 153.266 106.145C152.595 103.618 153.627 102.771 154.16 103.261C154.122 101.783 154.755 100.769 156.06 100.218C156.854 99.8813 155.834 111.195 155.558 112.689Z" fill="#00519B"/>
<path d="M147.783 109.307C149.07 109.474 149.711 109.746 149.711 110.119C149.711 110.679 149.5 111.203 148.413 111.065C147.323 110.931 146.106 110.35 146.611 109.618C146.945 109.128 147.337 109.025 147.783 109.307Z" fill="#FFE4E4"/>
<path d="M156.043 114.557C156.242 114.495 156.456 114.334 156.547 114.138C156.84 113.499 156.207 112.646 155.767 112.083L155.89 111.986C156.312 112.367 156.737 112.769 157.007 113.332C157.388 114.158 157.001 114.897 156.283 115.21L156.043 114.557Z" fill="#0B1742"/>
<path d="M150.641 104.049C150.166 104.049 149.782 103.855 149.782 103.615C149.782 103.378 150.166 103.184 150.641 103.184C151.116 103.184 151.5 103.378 151.5 103.615C151.5 103.855 151.116 104.049 150.641 104.049Z" fill="#2846A6"/>
<path d="M152.027 105.122C152.546 104.331 152.355 103.22 152.355 103.211L152.683 103.158C152.695 103.208 152.897 104.392 152.314 105.28L152.027 105.122Z" fill="#2846A6"/>
<path d="M148.559 109.68C148.996 109.896 149.184 110.102 149.122 110.298C149.028 110.591 147.715 110.656 147.164 110.137C146.61 109.618 147.516 109.178 148.559 109.68Z" fill="#FFE4E4"/>
<path d="M92.5356 98.1722V112.311H140.318C139.943 106.089 135.984 101.379 128.445 98.1722C120.904 94.9687 108.934 94.9687 92.5356 98.1722Z" fill="#FE8A4E"/>
<path d="M92.5353 112.311V99.8691C62.637 104.318 44.0491 106.593 36.7628 106.692C33.8026 106.73 31.7304 106.988 30.5785 105.983C27.6037 103.389 27.7297 97.6416 26.1265 97.6416C24.9922 97.6416 24.1598 98.7055 24.4295 99.8046L27.5333 112.469L92.5353 112.311Z" fill="#507596"/>
<path d="M94.8332 110.259C90.5922 111.004 87.0927 110.259 84.4431 110.259C82.6758 110.259 80.5538 111.109 78.0801 112.806H116.085C116 110.831 115.839 108.855 115.763 106.88C106.372 108.269 96.9288 109.893 94.8332 110.259Z" fill="#FFF6F6"/>
<path d="M136.502 104.978C134.946 104.289 125.382 105.458 115.763 106.88C115.839 108.855 116.001 110.831 116.086 112.806H140.318C139.826 108.495 138.554 105.883 136.502 104.978Z" fill="#F57533"/>
<path d="M150.844 117.212H27.5342V112.47H150.844V117.212Z" fill="#236EB2"/>
<path d="M224.897 39.8245C224.89 39.8176 224.89 39.8176 224.897 39.8245V39.8245Z" fill="#757597"/>
<path d="M240.142 82.4277C238.911 62.6293 237.856 52.4297 228.668 43.0888C228.627 43.0507 226.918 41.4534 226.842 41.383C226.845 41.383 226.845 41.386 226.845 41.386C226.804 41.3537 225.013 39.9176 224.899 39.8238C217.818 34.6829 212.325 33.1442 186.322 30.4331V31.6612C193.632 32.4525 201.237 33.6366 210.241 35.1929C215.992 36.3067 219.178 37.9919 223.284 40.662C225.517 42.233 227.539 44.2905 227.495 44.2495C230.96 47.834 233.395 51.9695 234.638 55.5188C237.399 62.5003 243.422 100.283 231.654 144.487C231.61 144.487 175.313 145.058 171.002 145.102C240.491 145.803 124.562 144.762 232.595 145.721C233.63 140.908 241.435 119.047 240.142 82.4277Z" fill="#00529C"/>
<path d="M226.843 41.3841C226.839 41.3798 226.839 41.3798 226.843 41.3841V41.3841Z" fill="#757597"/>
<path d="M199.371 99.7938H165.703V93.1113H199.371V99.7938Z" fill="#164A6F"/>
<path d="M199.371 99.7935H167.826V109.706H199.371V99.7935Z" fill="#164A6F"/>
<path d="M194.62 99.7938H165.703V93.1113H194.62V99.7938Z" fill="#91CAFF"/>
<path d="M194.619 99.7935H167.526V109.706H194.619V99.7935Z" fill="#91CAFF"/>
<path d="M168.64 98.2842H167.526V94.8374H168.64V98.2842Z" fill="#CCE5F8"/>
<path d="M183.599 106.977H180.604V102.821C180.604 101.994 181.275 101.326 182.102 101.326C182.928 101.326 183.599 101.994 183.599 102.821V106.977Z" fill="#236EB2"/>
<path d="M189.473 102.434H188.594V100.925H189.473V102.434Z" fill="#104E3D"/>
<path d="M166.483 93.891H194.62V93.1113H165.703V99.7938H166.483V93.891Z" fill="#F3F4FD"/>
<path d="M156.691 142.259C143.968 142.016 136.807 130.152 138.454 117.159L139.31 117.268C137.704 129.947 144.75 141.401 157.028 141.401C170.419 141.401 172.5 125.099 172.896 112.792L173.757 112.818C173.312 126.702 170.604 142.553 156.691 142.259Z" fill="#353D44"/>
<path d="M145.48 130.662C140.251 126.35 139.902 117.596 139.891 117.226L140.752 117.197C140.752 117.285 141.101 125.937 146.031 129.999C148.22 131.805 151.013 132.45 154.331 131.919C167.43 129.829 160.378 96.2528 165.457 92.7562C170.179 89.5088 198.984 88.3715 199.796 94.0663C200.514 99.0753 199.831 119.428 199.802 120.292L198.94 120.263C198.946 120.052 199.649 99.1222 198.943 94.1894C198.307 89.7432 170.633 90.2444 165.947 93.4684C164.349 94.5675 164.188 100.233 164.018 106.233C163.701 117.429 163.309 131.359 154.469 132.772C151.198 133.294 148.065 132.796 145.48 130.662Z" fill="#353D44"/>
<path d="M176.562 111.13H171.222C170.712 111.13 170.296 110.717 170.296 110.207V104.404C170.296 102.481 171.855 100.925 173.775 100.925H174.009C175.929 100.925 177.485 102.481 177.485 104.404V110.207C177.485 110.717 177.072 111.13 176.562 111.13Z" fill="#6A7781"/>
<path d="M175.577 111.13H171.076C170.645 111.13 170.296 110.781 170.296 110.351V103.856C170.296 102.238 171.609 100.925 173.23 100.925H173.423C175.044 100.925 176.354 102.238 176.354 103.856V110.351C176.354 110.781 176.008 111.13 175.577 111.13Z" fill="#CCE5F8"/>
<path d="M174.997 113.812H172.283V111.13H174.997V113.812Z" fill="#6A7781"/>
<path d="M196.698 115.081H202.041C202.551 115.081 202.964 115.494 202.964 116.004V121.81C202.964 123.73 201.408 125.287 199.488 125.287H199.253C197.334 125.287 195.774 123.73 195.774 121.81V116.004C195.774 115.494 196.191 115.081 196.698 115.081Z" fill="#6A7781"/>
<path d="M197.685 115.081H202.187C202.615 115.081 202.964 115.43 202.964 115.861V122.356C202.964 123.976 201.654 125.287 200.033 125.287H199.837C198.219 125.287 196.906 123.976 196.906 122.356V115.861C196.906 115.43 197.255 115.081 197.685 115.081Z" fill="#FBFEFF"/>
<path d="M198.266 112.399H200.98V115.081H198.266V112.399Z" fill="#6A7781"/>
<path d="M172.723 96.2617C172.723 96.8948 172.207 97.4077 171.574 97.4077C170.941 97.4077 170.425 96.8948 170.425 96.2617C170.425 95.6257 170.941 95.1128 171.574 95.1128C172.207 95.1128 172.723 95.6257 172.723 96.2617Z" fill="#D4145A"/>
<path d="M177.005 96.262C177.005 96.6225 176.712 96.9156 176.351 96.9156C175.988 96.9156 175.698 96.6225 175.698 96.262C175.698 95.9015 175.988 95.6084 176.351 95.6084C176.712 95.6084 177.005 95.9015 177.005 96.262Z" fill="#46FF3B"/>
<path d="M178.875 96.262C178.875 96.6225 178.582 96.9156 178.221 96.9156C177.861 96.9156 177.568 96.6225 177.568 96.262C177.568 95.9015 177.861 95.6084 178.221 95.6084C178.582 95.6084 178.875 95.9015 178.875 96.262Z" fill="#D4145A"/>
<path d="M184.623 96.4519C184.623 96.8124 184.33 97.1055 183.969 97.1055C183.609 97.1055 183.315 96.8124 183.315 96.4519C183.315 96.0914 183.609 95.7983 183.969 95.7983C184.33 95.7983 184.623 96.0914 184.623 96.4519Z" fill="#104E3D"/>
<path d="M186.296 96.4519C186.296 96.8124 186.003 97.1055 185.643 97.1055C185.282 97.1055 184.989 96.8124 184.989 96.4519C184.989 96.0914 185.282 95.7983 185.643 95.7983C186.003 95.7983 186.296 96.0914 186.296 96.4519Z" fill="#104E3D"/>
<path d="M188.107 96.4519C188.107 96.8124 187.814 97.1055 187.453 97.1055C187.09 97.1055 186.8 96.8124 186.8 96.4519C186.8 96.0914 187.09 95.7983 187.453 95.7983C187.814 95.7983 188.107 96.0914 188.107 96.4519Z" fill="#104E3D"/>
<path d="M189.915 96.4519C189.915 96.8124 189.622 97.1055 189.261 97.1055C188.901 97.1055 188.608 96.8124 188.608 96.4519C188.608 96.0914 188.901 95.7983 189.261 95.7983C189.622 95.7983 189.915 96.0914 189.915 96.4519Z" fill="#104E3D"/>
<path d="M171.665 107.743L171.574 110.04C171.383 108.642 170.741 103.613 171.424 102.396C172.157 101.195 173.983 101.505 173.725 102.256C173.655 102.452 173.458 102.569 173.259 102.54C171.75 102.326 171.823 103.727 171.665 107.743Z" fill="#6A7781"/>
<path d="M155.146 99.8401C154.844 104.993 153.964 109.858 152.622 114.243C154.272 114.243 155.653 115.054 157.209 115.336C158.586 110.406 159.46 105.001 159.712 99.3066C158.188 99.3272 156.667 99.4268 155.146 99.8401Z" fill="#236EB2"/>
<path d="M38.0324 89.4232L37.4854 71.0967H16.2539L18.322 89.4232H38.0324Z" fill="#339DFE"/>
<path d="M23.9134 89.4237H36.0683C35.2613 85.0244 36.0115 77.0895 35.0222 73.8737C34.3468 71.674 33.3635 68.3805 32.0724 63.9961H21.0293C21.7914 71.6979 21.7914 75.9269 21.0293 76.689C22.3593 82.0148 23.3216 86.2587 23.9134 89.4237Z" fill="#87C6FF"/>
<path fill-rule="evenodd" clip-rule="evenodd" d="M35.6557 89.4239C34.257 86.5996 32.8344 82.8578 32.2486 79.7824V73.028L32.0723 63.9395C32.963 64.1083 33.9813 65.0284 35.1272 66.6971L35.1959 64.5461C35.2765 64.2802 35.8265 64.86 36.8426 66.2826C38.3638 68.4135 46.3316 82.8159 44.64 85.9331C43.5133 88.0102 41.8994 87.8488 39.8014 85.443L36.647 79.6208C36.619 82.905 36.4242 85.9134 36.1339 87.4065C35.9904 88.1417 36.1429 88.8082 36.5045 89.4239H35.6557ZM30.1208 89.4237C30.0521 89.2265 30.0013 89.074 29.9684 88.9575L29.7652 79.7823L24.8369 63.9961H21.0293V65.1936C16.3603 68.8937 10.4889 83.7616 12.8376 85.7089C14.565 87.1375 17.7031 87.6874 22.2519 87.3587L22.7749 83.7513C20.2883 82.9474 18.7731 82.1405 18.2232 81.3335C17.6763 80.5237 18.7159 79.1941 21.3448 77.3447C23.5832 82.0666 24.7452 86.0921 24.8309 89.4237H30.1208Z" fill="#FE8A4E"/>
<path d="M35.7394 64.4354L32.0723 63.9961L32.2486 79.7823L34.6754 71.8892L33.5965 71.4229L35.1835 70.4696L35.7394 64.4354Z" fill="#FFCAAF"/>
<path d="M18.9014 89.4232L16.2086 71.1982C15.9247 71.3596 15.6019 72.1307 15.2343 73.5115C14.9623 74.5336 15.85 82.0471 16.8213 89.4232H18.9014Z" fill="#87C6FF"/>
<path d="M97.4496 89.4234V88.9512H75.7847V89.4234H97.4496Z" fill="#5CD4ED"/>
<path d="M75.7852 89.4234V88.9512H65.292V89.4234H75.7852Z" fill="#013C66"/>
<path d="M21.5376 63.9961L24.2035 72.3733L25.408 72.6901L24.8371 73.4523L29.7654 79.7823L24.8371 63.9961H21.5376Z" fill="#FFCAAF"/>
<path d="M27.7393 86.7695H48.7018V88.2101H27.7901L27.7393 86.7695Z" fill="#3A1942"/>
<path d="M42.8047 55.5264V80.3832L68.8868 78.8828L69.7087 56.5007L42.8047 55.5264Z" fill="#545454"/>
<path d="M60.842 74.1038C60.842 72.6454 59.4224 71.4648 57.668 71.4648C55.9167 71.4648 54.4971 72.6454 54.4971 74.1038C54.4971 75.5623 55.9167 76.7428 57.668 76.7428C57.7368 76.7428 57.8025 76.7398 57.8653 76.7369C58.6185 79.0979 59.4911 83.2283 58.9651 85.129C58.6663 86.2468 57.9639 87.2869 57.0046 87.9324L57.148 88.1655C58.2688 87.5648 59.1385 86.5307 59.6077 85.2964C60.3579 83.3209 59.9813 79.0172 59.4015 76.3125C60.2682 75.8432 60.842 75.0303 60.842 74.1038Z" fill="#757575"/>
<path d="M58.9641 86.9219H51.1787C50.566 86.9219 50.0669 87.418 50.0669 88.0337V88.2518H60.073V88.0337C60.073 87.418 59.5768 86.9219 58.9641 86.9219Z" fill="#12113F"/>
<path d="M23.2385 83.9842C23.2684 83.9842 23.355 83.9602 23.4865 83.9214C24.2546 83.6823 26.529 82.8754 27.2672 83.1563C28.1309 83.488 30.8417 87.457 30.1842 87.457C29.7478 87.457 29.1022 86.919 28.2535 85.8461C28.4447 86.5245 28.3222 86.8623 27.8829 86.8623C27.6378 87.4809 27.3778 87.7887 27.1028 87.7887C26.8279 87.7887 26.4184 87.723 25.8685 87.5915C24.691 86.928 23.7167 86.5992 22.9516 86.5992C22.1835 86.5992 21.7322 86.5873 21.5947 86.5664V84.546L23.2385 83.9842Z" fill="#FFE4E4"/>
<path d="M24.9529 59.0826C22.7772 60.1436 21.3067 61.3481 20.5416 62.693C19.7765 64.0379 19.1728 65.3768 18.7305 66.7038L19.8781 67.2178C19.9798 66.5334 20.1591 65.9506 20.4221 65.4664L19.7018 69.1993L21.2081 69.6625C21.8178 67.947 22.2332 66.5782 22.4454 65.5561L21.5877 69.6625L23.1089 69.8598C23.7485 68.8945 24.0682 67.947 24.0682 67.0206L23.9248 69.8598L27.0988 70.0839C26.9971 66.4826 26.9015 63.7868 26.8089 61.9936C26.767 61.1388 26.5996 60.1705 26.3904 59.7043C26.0946 59.0348 25.6134 58.8286 24.9529 59.0826Z" fill="#00519B"/>
<path d="M24.376 59.2734L24.4118 59.3242C24.8303 59.8831 25.5147 60.176 26.208 60.0953L26.5996 60.0474L27.0987 58.6129L24.8751 57.8418L24.376 59.2734Z" fill="#3BD7E6"/>
<path d="M27.891 46.1505H27.6907C25.8916 46.2551 24.7678 46.5301 24.3255 46.9724C23.662 47.6389 23.4289 54.0017 24.0685 56.0968C24.711 58.1889 26.6029 60.0807 29.1403 59.6384C31.6747 59.1961 32.0781 59.5577 32.64 56.0161C33.2049 52.4715 28.7368 45.8277 27.891 46.1505Z" fill="#00519B"/>
<path d="M31.594 58.3089C31.7763 58.4912 31.0441 63.7214 31.7674 65.1709C31.6807 66.9342 31.2055 67.8696 30.3418 67.9743C29.2151 68.1087 27.1708 66.7728 26.9436 65.7387C26.7434 64.8122 26.7434 62.0358 26.9436 57.4033L31.594 58.3089Z" fill="#FFF7F7"/>
<path d="M31.5199 60.4757C29.8014 62.0328 28.1785 61.3245 26.8755 59.3729C26.9054 58.3896 26.9442 57.4601 26.9442 57.4033L31.5946 58.3089C31.6693 58.3836 31.5886 59.3101 31.5199 60.4757Z" fill="#FFE4E4"/>
<path d="M31.0534 46.557C32.5059 46.832 33.3159 47.5941 33.4892 48.8404C33.7492 50.7053 34.1138 52.2624 33.7492 54.4412C33.3876 56.6199 32.0905 59.5249 29.9626 59.9911C27.8346 60.4574 25.6051 56.9307 25.6051 55.012C25.6051 53.0933 24.828 49.8774 26.2805 47.9049C27.2488 46.5899 28.8388 46.1416 31.0534 46.557Z" fill="#FFF7F7"/>
<path d="M31.0533 46.5566C32.5058 46.8316 33.3157 47.5937 33.489 48.8399C33.7251 50.5315 34.0449 51.9691 33.8327 53.843C33.4861 53.6039 32.9929 53.3648 32.3025 53.1347C29.9236 52.3516 27.7986 47.758 27.709 47.5608L27.6701 47.4801L27.6641 47.3904C27.6552 47.2081 27.6761 47.0169 27.7299 46.8256C28.749 46.4221 29.8548 46.3325 31.0533 46.5566Z" fill="#FFE4E4"/>
<path d="M26.1749 53.9241C25.622 53.2815 25.2066 52.8243 24.9316 52.5493C24.5162 52.1339 23.4791 48.0364 24.5162 46.6347C25.5533 45.233 27.5378 45.1553 29.1277 44.976C30.7147 44.7937 33.2342 46.0011 33.3746 48.3682C30.649 47.3341 28.9066 46.9963 28.1475 47.361C27.0058 47.9049 26.5396 48.5535 26.3035 49.8236C26.1481 50.6724 26.1062 52.0382 26.1749 53.9241Z" fill="#00519B"/>
<path d="M26.1757 53.9239C25.8051 52.316 25.312 51.7063 24.6963 52.0949C23.7728 52.6777 24.7651 55.3435 25.6258 55.3435C26.1996 55.3435 26.3849 54.8713 26.1757 53.9239Z" fill="#FFF7F7"/>
<path d="M25.2789 52.603C26.1875 54.0615 26.331 54.7101 25.7063 54.5487C24.7709 54.3096 24.4003 52.1966 25.2789 52.603Z" fill="#FFF7F7"/>
<path d="M24.5563 59.2051C23.3279 59.6026 22.1414 60.1435 21.0476 60.8518C20.5006 61.2135 19.9896 61.611 19.4875 62.0264C18.9854 62.4538 18.5072 62.8662 18.0679 63.4191L18.4683 63.6851C18.821 63.2189 19.2992 62.7616 19.7684 62.3432C20.2466 61.9218 20.7398 61.5093 21.2538 61.1507C21.7708 60.7891 22.3208 60.4663 22.8886 60.1824C23.4535 59.8985 24.0452 59.6414 24.631 59.4352L24.5563 59.2051Z" fill="#3BD7E6"/>
<path d="M24.9116 59.2676C24.1555 59.6113 23.4322 60.0297 22.7418 60.4959C22.0514 60.9651 21.3969 61.4882 20.7872 62.059C20.1686 62.6239 19.6067 63.2515 19.1016 63.9239C18.5816 64.5874 18.1722 65.3316 17.7866 66.0847L18.2289 66.282C18.5607 65.5408 18.9223 64.8026 19.3975 64.1361C19.8548 63.4577 20.3748 62.8151 20.9546 62.2293C21.5284 61.6406 22.1501 61.0907 22.8136 60.5945C23.474 60.0984 24.1734 59.6471 24.9116 59.2676Z" fill="#3BD7E6"/>
<path d="M31.0712 55.3469C31.0144 54.7522 30.9755 54.1544 30.9815 53.5537C31.113 54.3158 31.1459 54.8687 31.1907 55.4216C30.871 55.5083 30.4914 55.6846 30.0132 55.5053C30.3778 55.5741 30.7394 55.4724 31.0712 55.3469Z" fill="#172866"/>
<path d="M29.8928 53.4967C29.7852 53.156 29.4893 52.8273 29.0918 52.7197C28.3805 52.5344 27.9442 53.5595 27.457 53.5475C27.8067 53.7269 28.3686 53.1291 28.7541 52.9767C28.9603 52.893 29.1456 52.9498 29.3518 53.0484C29.5521 53.15 29.7314 53.3114 29.8928 53.4967Z" fill="#616D97"/>
<path d="M28.606 53.1891C28.606 53.4074 28.7615 53.5809 28.9529 53.5809C29.1443 53.5809 29.2968 53.4074 29.2968 53.1891C29.2968 52.9738 29.1443 52.7974 28.9529 52.7974C28.7615 52.7974 28.606 52.9738 28.606 53.1891Z" fill="#616D97"/>
<path d="M31.4741 53.7208C31.5996 53.3831 31.9045 53.0693 32.311 52.9797C33.0312 52.8242 33.4168 53.8673 33.9069 53.8822C33.5483 54.0436 33.0133 53.422 32.6367 53.2516C32.4305 53.156 32.2452 53.2068 32.033 53.2965C31.8298 53.3891 31.6415 53.5415 31.4741 53.7208Z" fill="#616D97"/>
<path d="M32.7752 53.4696C32.7662 53.6879 32.6047 53.8554 32.4133 53.8464C32.2219 53.8374 32.0754 53.655 32.0844 53.4397C32.0933 53.2243 32.2578 53.0539 32.4492 53.0628C32.6406 53.0718 32.7872 53.2542 32.7752 53.4696Z" fill="#616D97"/>
<path d="M30.1448 51.8379C30.2225 51.7871 29.6009 51.1624 28.8567 51.0937C28.3606 51.0459 27.8436 51.2939 27.3086 51.8379C28.0378 51.4015 28.5579 51.2551 28.8687 51.3955C29.3289 51.6047 29.7145 52.1158 30.1448 51.8379Z" fill="#616D97"/>
<path d="M29.9576 57.8972C30.0243 57.8671 30.007 57.5587 29.9428 57.5963C29.9329 57.5963 28.9226 58.01 28.0803 55.9944C28.0284 55.8666 27.9691 56.1072 28.0185 56.2276C28.5891 57.6038 29.4018 58.1529 29.9576 57.8972Z" fill="#616D97"/>
<path d="M29.9104 58.1182C29.9596 58.1182 29.9998 58.0476 29.9998 57.9506C30.0177 57.5096 28.6675 57.8271 28.1668 56.2043C28.1042 56.0014 27.9522 56.1955 28.0148 56.3895C28.4753 57.8889 29.8478 58.1093 29.906 58.1182H29.9104Z" fill="#616D97"/>
<path fill-rule="evenodd" clip-rule="evenodd" d="M26.7524 53.924V53.2994C26.7524 52.9557 27.0334 52.6777 27.3741 52.6777H30.028C30.3687 52.6777 30.6496 52.9557 30.6496 53.2994V53.924C30.6496 54.2647 30.3687 54.5457 30.028 54.5457H27.3741C27.0334 54.5457 26.7524 54.2647 26.7524 53.924ZM27.3741 52.9198C27.1649 52.9198 26.9945 53.0902 26.9945 53.2994V53.924C26.9945 54.1332 27.1649 54.3036 27.3741 54.3036H30.028C30.2372 54.3036 30.4076 54.1332 30.4076 53.924V53.2994C30.4076 53.0902 30.2372 52.9198 30.028 52.9198H27.3741Z" fill="black"/>
<path fill-rule="evenodd" clip-rule="evenodd" d="M31.2329 54.0226V53.1978C31.2329 52.9109 31.466 52.6777 31.7529 52.6777H34.1349C34.4218 52.6777 34.6549 52.9109 34.6549 53.1978V54.0226C34.6549 54.3125 34.4218 54.5457 34.1349 54.5457H31.7529C31.466 54.5457 31.2329 54.3125 31.2329 54.0226ZM31.7529 52.9198C31.6005 52.9198 31.475 53.0453 31.475 53.1978V54.0226C31.475 54.178 31.6005 54.3036 31.7529 54.3036H34.1349C34.2873 54.3036 34.4129 54.178 34.4129 54.0226V53.1978C34.4129 53.0453 34.2873 52.9198 34.1349 52.9198H31.7529Z" fill="black"/>
<path d="M35.4887 50.5499C33.8539 48.9181 33.2501 45.8427 31.2537 45.4034C29.2573 44.9611 28.0917 46.4644 28.1485 47.361C29.5472 50.4214 30.9847 52.1937 32.4522 52.6778C34.6578 53.4041 35.3841 54.4142 34.9686 55.7113C34.6907 56.578 34.338 56.8889 33.9017 56.6468C34.7355 57.3192 35.411 57.1399 35.928 56.0999C36.705 54.5457 37.1205 52.1847 35.4887 50.5499Z" fill="#00519B"/>
<path d="M33.9016 56.6462C34.6608 57.0855 35.7277 55.2325 34.9477 54.0221C34.3828 53.0837 33.1395 52.6921 32.1473 52.2797C30.5752 51.3771 29.063 48.8846 28.1484 47.3604C28.8119 49.1775 30.2196 51.6999 31.9171 52.7041L32.3266 52.8804C32.745 53.0508 34.0242 53.3945 34.6398 54.2253C35.1389 54.8799 34.8998 55.893 34.5711 56.3712C34.4306 56.5804 34.1736 56.7418 33.9016 56.6462Z" fill="#00519B"/>
<path d="M31.3283 53.6763H30.6016V53.437H31.3283V53.6763Z" fill="black"/>
<path d="M94.203 90.4231V87.334H4V90.4231H94.203Z" fill="#AD5B45"/>
<path d="M31.3043 82.5438C31.0503 82.3047 31.1339 81.8803 31.5583 81.2766C31.9797 80.6699 32.7747 80.2694 33.9403 80.0781L36.4657 80.6699V83.1505C35.5901 83.8648 34.8847 84.2234 34.3497 84.2234C33.5458 84.2234 32.1053 84.2503 31.6002 83.9216C31.2595 83.7004 31.5016 83.5181 32.3175 83.3687C31.5673 83.6137 31.1907 83.5629 31.1907 83.2222C31.1907 82.8785 31.4955 82.5229 32.1052 82.1523C31.7974 82.4123 31.5284 82.5438 31.3043 82.5438Z" fill="#FFE4E4"/>
<path d="M44.6434 82.8154L36.4873 79.9463C36.4873 82.0772 36.4873 83.3085 36.4873 83.6373C36.4873 84.1274 40.4981 86.5453 42.1419 87.4837C44.9871 89.1096 45.8209 87.5554 44.6434 82.8154Z" fill="#FF9863"/>
</svg>
