<?xml version="1.0" standalone="no"?>
<!DOCTYPE svg PUBLIC "-//W3C//DTD SVG 20010904//EN"
 "http://www.w3.org/TR/2001/REC-SVG-20010904/DTD/svg10.dtd">
<svg version="1.0" xmlns="http://www.w3.org/2000/svg"
 width="612.000000pt" height="433.000000pt" viewBox="0 0 612.000000 433.000000"
 preserveAspectRatio="xMidYMid meet">

<g transform="translate(0.000000,433.000000) scale(0.100000,-0.100000)"
fill="#000000" stroke="none">
<path d="M3388 3040 c-15 -4 -36 -14 -47 -22 -31 -22 -71 -86 -71 -113 0 -27
15 -34 23 -11 5 13 10 13 38 -1 24 -12 34 -13 37 -5 6 19 36 14 72 -13 34 -25
50 -25 50 1 0 8 9 14 20 14 29 0 41 -38 24 -72 -18 -36 -18 -82 2 -123 15 -32
31 -42 132 -79 l42 -16 0 25 c0 15 -15 42 -37 67 -28 30 -32 38 -15 29 12 -7
37 -31 54 -54 17 -23 28 -34 24 -23 -19 54 -125 126 -185 126 -25 0 -27 12 -6
30 37 31 36 151 -2 193 -37 40 -108 62 -155 47z"/>
<path d="M3390 2860 c0 -5 12 -10 28 -10 21 0 24 2 12 10 -20 13 -40 13 -40 0z"/>
<path d="M3285 2840 c-3 -5 -1 -10 4 -10 6 0 11 5 11 10 0 6 -2 10 -4 10 -3 0
-8 -4 -11 -10z"/>
<path d="M3400 2820 c0 -5 5 -10 10 -10 6 0 10 5 10 10 0 6 -4 10 -10 10 -5 0
-10 -4 -10 -10z"/>
<path d="M3300 2800 c0 -5 5 -10 10 -10 6 0 10 5 10 10 0 6 -4 10 -10 10 -5 0
-10 -4 -10 -10z"/>
<path d="M3467 2699 c-21 -15 -43 -29 -49 -31 -8 -3 -7 -10 1 -26 11 -21 12
-21 31 -2 11 11 24 20 29 20 8 0 35 60 29 65 -2 1 -20 -10 -41 -26z"/>
<path d="M2289 2677 c-46 -38 -94 -157 -120 -294 -6 -35 -14 -63 -17 -63 -3 0
-37 20 -76 44 -81 50 -136 79 -136 72 0 -3 15 -13 33 -22 17 -9 65 -37 106
-63 l73 -46 -6 -65 c-24 -231 -34 -450 -21 -450 3 0 14 9 25 20 11 11 18 20
15 20 -3 0 4 9 15 20 19 19 56 18 44 -1 -3 -5 12 -8 33 -8 31 2 33 3 10 6 -16
3 -31 11 -34 19 -3 7 -9 12 -13 9 -4 -3 -10 4 -13 15 -4 17 -2 18 15 9 17 -9
18 -8 9 9 -14 26 -7 31 42 26 36 -3 38 -2 12 5 l-30 8 30 7 c63 16 71 19 96
37 20 14 29 15 37 7 9 -9 12 -9 12 0 0 7 7 12 16 12 8 0 13 -4 10 -9 -3 -5 3
-11 14 -14 14 -4 20 0 21 11 0 12 4 9 12 -8 6 -14 16 -28 21 -31 4 -4 5 -12 2
-18 -4 -6 -1 -11 8 -11 12 0 14 16 11 98 -8 179 -28 319 -67 457 -24 84 -28
91 -39 74 -6 -9 -7 -2 -3 17 4 21 1 36 -10 47 -9 8 -16 20 -16 26 0 16 -51 51
-74 51 -11 -1 -33 -11 -47 -23z"/>
<path d="M1791 2516 c2 -2 15 -9 29 -15 24 -11 24 -11 6 3 -16 13 -49 24 -35
12z"/>
<path d="M1850 2485 c0 -2 18 -14 40 -25 22 -11 40 -18 40 -15 0 2 -18 14 -40
25 -22 11 -40 18 -40 15z"/>
<path d="M3860 2405 c0 -11 4 -27 10 -35 8 -12 10 -12 16 4 4 11 0 24 -10 34
-15 15 -16 15 -16 -3z"/>
<path d="M2356 1955 c-11 -8 -16 -18 -12 -22 3 -4 16 3 29 15 24 25 12 29 -17
7z"/>
<path d="M2480 1866 c0 -9 5 -16 10 -16 6 0 10 4 10 9 0 6 -4 13 -10 16 -5 3
-10 -1 -10 -9z"/>
<path d="M2310 1840 c-8 -5 -11 -12 -8 -16 4 -3 14 1 23 10 18 17 9 21 -15 6z"/>
<path d="M2392 1836 c7 -8 15 -12 17 -11 5 6 -10 25 -20 25 -5 0 -4 -6 3 -14z"/>
<path d="M2190 1832 c0 -5 11 -12 25 -14 14 -3 25 -1 25 3 0 5 -4 9 -9 9 -5 0
-16 3 -25 6 -9 3 -16 2 -16 -4z"/>
<path d="M2156 1802 c-2 -4 11 -6 30 -4 19 2 34 6 34 8 0 8 -59 4 -64 -4z"/>
<path d="M2243 1793 c9 -2 23 -2 30 0 6 3 -1 5 -18 5 -16 0 -22 -2 -12 -5z"/>
<path d="M2353 1773 c-3 -10 -8 -22 -10 -28 -3 -5 3 -1 11 9 16 20 21 36 11
36 -3 0 -8 -8 -12 -17z"/>
<path d="M2300 1770 c8 -5 20 -10 25 -10 6 0 3 5 -5 10 -8 5 -19 10 -25 10 -5
0 -3 -5 5 -10z"/>
<path d="M2364 1739 c-3 -6 1 -18 10 -27 10 -11 16 -12 16 -4 0 7 -5 12 -11
12 -6 0 -9 7 -5 15 6 17 0 20 -10 4z"/>
<path d="M2448 1703 c12 -2 32 -2 45 0 12 2 2 4 -23 4 -25 0 -35 -2 -22 -4z"/>
<path d="M3713 1563 c-28 -5 -31 -38 -5 -52 14 -8 33 -3 75 18 31 16 54 31 50
35 -7 6 -83 6 -120 -1z"/>
<path d="M2660 1471 c0 -20 5 -31 14 -31 24 0 25 14 5 39 l-19 23 0 -31z"/>
<path d="M2185 1232 c37 -159 108 -265 165 -247 30 10 79 65 73 83 -4 9 -2 13
4 9 8 -5 34 68 69 196 5 16 -7 17 -159 17 l-165 0 13 -58z m130 -212 c3 -5 1
-10 -4 -10 -6 0 -11 5 -11 10 0 6 2 10 4 10 3 0 8 -4 11 -10z"/>
<path d="M2190 1080 c-8 -5 -10 -10 -5 -10 6 0 17 5 25 10 8 5 11 10 5 10 -5
0 -17 -5 -25 -10z"/>
<path d="M2140 1060 c-8 -5 -10 -10 -5 -10 6 0 17 5 25 10 8 5 11 10 5 10 -5
0 -17 -5 -25 -10z"/>
<path d="M2032 1018 c-40 -17 -71 -32 -69 -34 4 -4 147 52 156 61 10 11 -17 2
-87 -27z"/>
<path d="M1870 950 c-8 -5 -10 -10 -5 -10 6 0 17 5 25 10 8 5 11 10 5 10 -5 0
-17 -5 -25 -10z"/>
<path d="M4396 331 c9 -8 178 -31 226 -31 19 0 20 2 8 11 -12 9 -12 10 3 5 10
-3 24 -6 30 -7 7 0 1 -5 -13 -10 -17 -7 -62 -6 -144 2 -84 9 -121 10 -123 2
-3 -7 -43 -9 -116 -7 l-112 3 110 -10 c61 -5 209 -7 330 -5 309 6 339 9 225
16 -94 7 -93 7 20 4 271 -8 276 -8 284 12 5 13 -10 15 -127 12 -72 -1 -136 0
-142 4 -15 9 -470 9 -459 -1z m161 -7 c-3 -3 -12 -4 -19 -1 -8 3 -5 6 6 6 11
1 17 -2 13 -5z m501 -11 c-10 -2 -26 -2 -35 0 -10 3 -2 5 17 5 19 0 27 -2 18
-5z"/>
<path d="M1088 313 c7 -3 16 -2 19 1 4 3 -2 6 -13 5 -11 0 -14 -3 -6 -6z"/>
<path d="M5150 310 c0 -12 47 -13 53 -2 3 4 -8 8 -24 9 -16 1 -29 -2 -29 -7z"/>
<path d="M1125 305 c24 -8 156 -12 144 -4 -8 5 -45 8 -84 8 -38 0 -65 -2 -60
-4z"/>
<path d="M1330 300 c-34 -7 -34 -7 -5 -8 17 0 41 4 55 8 33 11 0 11 -50 0z"/>
<path d="M1535 300 c-156 -11 -26 -17 425 -18 261 -1 538 -5 616 -8 192 -9
1574 6 1574 17 0 5 -345 9 -767 9 -503 0 -763 -4 -753 -10 11 -7 4 -10 -25 -9
-29 0 -35 2 -20 8 53 21 -366 27 -716 11 -119 -6 -227 -7 -240 -3 -13 5 -55 6
-94 3z m848 -7 c-57 -2 -149 -2 -205 0 -57 1 -11 3 102 3 113 0 159 -2 103 -3z"/>
</g>
</svg>
